<svg preserveAspectRatio="none" overflow="visible" style="display: block;" width="14" height="14" viewBox="0 0 14 14" fill="none" xmlns="http://www.w3.org/2000/svg">
<g id="iconoir:twitter">
<path id="Vector" d="M13.4167 1.75583C13.4167 1.75583 12.2395 2.45117 11.585 2.64833C11.2337 2.24438 10.7668 1.95807 10.2474 1.82812C9.72809 1.69818 9.18137 1.73086 8.68121 1.92176C8.18105 2.11266 7.75159 2.45257 7.45091 2.8955C7.15022 3.33844 6.99282 3.86303 7 4.39833V4.98167C5.97487 5.00825 4.95908 4.78089 4.04309 4.31984C3.1271 3.8588 2.33935 3.17837 1.75 2.33917C1.75 2.33917 -0.583333 7.58917 4.66667 9.9225C3.46531 10.738 2.03417 11.1469 0.583333 11.0892C5.83333 14.0058 12.25 11.0892 12.25 4.38083C12.2496 4.21828 12.2341 4.05689 12.2033 3.89667C12.7983 3.30983 13.4167 1.75583 13.4167 1.75583Z" stroke="#262537" stroke-linecap="round" stroke-linejoin="round"/>
</g>
</svg>
